<svg width="2508.4173828125px" height="100.4099609375px" xmlns="http://www.w3.org/2000/svg" viewBox="-1004.20869140625 24.79501953125 2508.4173828125 100.4099609375" style="background: rgba(40, 41, 47, 0);" preserveAspectRatio="xMidYMid"><defs><linearGradient id="editing-gradow-gradient" x1="0" x2="1" y1="0.5" y2="0.5" gradientUnits="objectBoundingBox"><stop offset="0" stop-color="#000000"></stop><stop offset="1" stop-color="#000000"></stop></linearGradient><filter id="editing-gradow-filter" x="-100%" y="-100%" width="300%" height="300%"><feFlood flood-color="rgba(97.6470588235294%,68.23529411764709%,36.07843137254901%,0)" result="flood"></feFlood><feComposite operator="in" in2="SourceAlpha" in="flood" result="shadow"></feComposite><feOffset dx="-4" dy="-4" in="SourceGraphic" result="offset-1"></feOffset><feOffset dx="4" dy="4" in="shadow" result="offset-2"></feOffset><feMerge><feMergeNode in="offset-2"></feMergeNode><feMergeNode in="offset-1"></feMergeNode></feMerge></filter></defs><g filter="url(#editing-gradow-filter)"><g transform="translate(-661.2525024414062, 100.80999946594238)"><path d="M14.75-7.38L0-7.38L0-59.00L14.75-59.00L14.75-36.88L22.13-36.88L22.13-44.25L29.50-44.25L29.50-51.63L36.88-51.63L36.88-59.00L51.63-59.00L51.63-51.63L44.25-51.63L44.25-44.25L36.88-44.25L36.88-36.88L29.50-36.88L29.50-29.50L36.88-29.50L36.88-22.13L44.25-22.13L44.25-14.75L51.63-14.75L51.63-7.38L29.50-7.38L29.50-14.75L22.13-14.75L22.13-22.13L14.75-22.13L14.75-7.38ZM73.75-7.38L59.00-7.38L59.00-59.00L103.25-59.00L103.25-51.63L110.63-51.63L110.63-29.50L95.88-29.50L95.88-22.13L103.25-22.13L103.25-14.75L110.63-14.75L110.63-7.38L88.50-7.38L88.50-14.75L81.13-14.75L81.13-22.13L73.75-22.13L73.75-7.38ZM73.75-51.63L73.75-29.50L88.50-29.50L88.50-36.88L95.88-36.88L95.88-51.63L73.75-51.63ZM169.63-7.38L125.38-7.38L125.38-14.75L140.13-14.75L140.13-51.63L125.38-51.63L125.38-59.00L169.63-59.00L169.63-51.63L154.88-51.63L154.88-14.75L169.63-14.75L169.63-7.38ZM191.75-7.38L177.00-7.38L177.00-59.00L191.75-59.00L191.75-51.63L199.13-51.63L199.13-44.25L206.50-44.25L206.50-51.63L213.88-51.63L213.88-59.00L228.63-59.00L228.63-7.38L213.88-7.38L213.88-36.88L206.50-36.88L206.50-22.13L199.13-22.13L199.13-36.88L191.75-36.88L191.75-7.38ZM287.63-7.38L236.00-7.38L236.00-22.13L243.38-22.13L243.38-29.50L250.75-29.50L250.75-36.88L258.13-36.88L258.13-44.25L265.50-44.25L265.50-51.63L236.00-51.63L236.00-59.00L287.63-59.00L287.63-44.25L280.25-44.25L280.25-36.88L272.88-36.88L272.88-29.50L265.50-29.50L265.50-22.13L258.13-22.13L258.13-14.75L287.63-14.75L287.63-7.38ZM346.63-7.38L302.38-7.38L302.38-14.75L317.13-14.75L317.13-51.63L302.38-51.63L302.38-59.00L346.63-59.00L346.63-51.63L331.88-51.63L331.88-14.75L346.63-14.75L346.63-7.38ZM368.75-7.38L354.00-7.38L354.00-59.00L368.75-59.00L368.75-36.88L376.13-36.88L376.13-44.25L383.50-44.25L383.50-51.63L390.88-51.63L390.88-59.00L405.63-59.00L405.63-51.63L398.25-51.63L398.25-44.25L390.88-44.25L390.88-36.88L383.50-36.88L383.50-29.50L390.88-29.50L390.88-22.13L398.25-22.13L398.25-14.75L405.63-14.75L405.63-7.38L383.50-7.38L383.50-14.75L376.13-14.75L376.13-22.13L368.75-22.13L368.75-7.38ZM523.63-7.38L479.38-7.38L479.38-14.75L494.13-14.75L494.13-51.63L479.38-51.63L479.38-59.00L523.63-59.00L523.63-51.63L508.88-51.63L508.88-14.75L523.63-14.75L523.63-7.38ZM575.25-7.38L538.38-7.38L538.38-14.75L531.00-14.75L531.00-22.13L545.75-22.13L545.75-14.75L567.88-14.75L567.88-29.50L538.38-29.50L538.38-36.88L531.00-36.88L531.00-51.63L538.38-51.63L538.38-59.00L575.25-59.00L575.25-51.63L582.63-51.63L582.63-44.25L567.88-44.25L567.88-51.63L545.75-51.63L545.75-36.88L575.25-36.88L575.25-29.50L582.63-29.50L582.63-14.75L575.25-14.75L575.25-7.38ZM663.75-7.38L649.00-7.38L649.00-44.25L656.38-44.25L656.38-51.63L663.75-51.63L663.75-59.00L685.88-59.00L685.88-51.63L693.25-51.63L693.25-44.25L700.63-44.25L700.63-7.38L685.88-7.38L685.88-22.13L663.75-22.13L663.75-7.38ZM663.75-44.25L663.75-29.50L685.88-29.50L685.88-44.25L678.50-44.25L678.50-51.63L671.13-51.63L671.13-44.25L663.75-44.25ZM811.25-7.38L774.38-7.38L774.38-14.75L767.00-14.75L767.00-22.13L781.75-22.13L781.75-14.75L803.88-14.75L803.88-29.50L774.38-29.50L774.38-36.88L767.00-36.88L767.00-51.63L774.38-51.63L774.38-59.00L811.25-59.00L811.25-51.63L818.63-51.63L818.63-44.25L803.88-44.25L803.88-51.63L781.75-51.63L781.75-36.88L811.25-36.88L811.25-29.50L818.63-29.50L818.63-14.75L811.25-14.75L811.25-7.38ZM877.63-7.38L826.00-7.38L826.00-59.00L877.63-59.00L877.63-51.63L840.75-51.63L840.75-36.88L870.25-36.88L870.25-29.50L840.75-29.50L840.75-14.75L877.63-14.75L877.63-7.38ZM899.75-7.38L885.00-7.38L885.00-22.13L892.38-22.13L892.38-29.50L899.75-29.50L899.75-36.88L892.38-36.88L892.38-44.25L885.00-44.25L885.00-59.00L899.75-59.00L899.75-44.25L907.13-44.25L907.13-36.88L914.50-36.88L914.50-44.25L921.88-44.25L921.88-59.00L936.63-59.00L936.63-44.25L929.25-44.25L929.25-36.88L921.88-36.88L921.88-29.50L929.25-29.50L929.25-22.13L936.63-22.13L936.63-7.38L921.88-7.38L921.88-22.13L914.50-22.13L914.50-29.50L907.13-29.50L907.13-22.13L899.75-22.13L899.75-7.38ZM980.88-7.38L966.13-7.38L966.13-29.50L958.75-29.50L958.75-36.88L951.38-36.88L951.38-59.00L966.13-59.00L966.13-36.88L980.88-36.88L980.88-59.00L995.63-59.00L995.63-36.88L988.25-36.88L988.25-29.50L980.88-29.50L980.88-7.38ZM1076.75-7.38L1062.00-7.38L1062.00-59.00L1076.75-59.00L1076.75-51.63L1084.13-51.63L1084.13-44.25L1091.50-44.25L1091.50-51.63L1098.88-51.63L1098.88-59.00L1113.63-59.00L1113.63-7.38L1098.88-7.38L1098.88-36.88L1091.50-36.88L1091.50-22.13L1084.13-22.13L1084.13-36.88L1076.75-36.88L1076.75-7.38ZM1165.25-7.38L1128.38-7.38L1128.38-14.75L1121.00-14.75L1121.00-51.63L1128.38-51.63L1128.38-59.00L1165.25-59.00L1165.25-51.63L1172.63-51.63L1172.63-14.75L1165.25-14.75L1165.25-7.38ZM1135.75-51.63L1135.75-14.75L1157.88-14.75L1157.88-51.63L1135.75-51.63ZM1216.88-7.38L1202.13-7.38L1202.13-51.63L1187.38-51.63L1187.38-59.00L1231.63-59.00L1231.63-51.63L1216.88-51.63L1216.88-7.38ZM1253.75-7.38L1239.00-7.38L1239.00-59.00L1253.75-59.00L1253.75-36.88L1275.88-36.88L1275.88-59.00L1290.63-59.00L1290.63-7.38L1275.88-7.38L1275.88-29.50L1253.75-29.50L1253.75-7.38ZM1349.63-7.38L1298.00-7.38L1298.00-59.00L1349.63-59.00L1349.63-51.63L1312.75-51.63L1312.75-36.88L1342.25-36.88L1342.25-29.50L1312.75-29.50L1312.75-14.75L1349.63-14.75L1349.63-7.38ZM1371.75-7.38L1357.00-7.38L1357.00-59.00L1401.25-59.00L1401.25-51.63L1408.63-51.63L1408.63-29.50L1393.88-29.50L1393.88-22.13L1401.25-22.13L1401.25-14.75L1408.63-14.75L1408.63-7.38L1386.50-7.38L1386.50-14.75L1379.13-14.75L1379.13-22.13L1371.75-22.13L1371.75-7.38ZM1371.75-51.63L1371.75-29.50L1386.50-29.50L1386.50-36.88L1393.88-36.88L1393.88-51.63L1371.75-51.63ZM1489.75-7.38L1475.00-7.38L1475.00-59.00L1526.63-59.00L1526.63-51.63L1489.75-51.63L1489.75-36.88L1519.25-36.88L1519.25-29.50L1489.75-29.50L1489.75-7.38ZM1578.25-7.38L1541.38-7.38L1541.38-14.75L1534.00-14.75L1534.00-59.00L1548.75-59.00L1548.75-14.75L1570.88-14.75L1570.88-59.00L1585.63-59.00L1585.63-14.75L1578.25-14.75L1578.25-7.38ZM1637.25-7.38L1607.75-7.38L1607.75-14.75L1600.38-14.75L1600.38-22.13L1593.00-22.13L1593.00-44.25L1600.38-44.25L1600.38-51.63L1607.75-51.63L1607.75-59.00L1637.25-59.00L1637.25-51.63L1644.63-51.63L1644.63-44.25L1629.88-44.25L1629.88-51.63L1615.13-51.63L1615.13-44.25L1607.75-44.25L1607.75-22.13L1615.13-22.13L1615.13-14.75L1629.88-14.75L1629.88-22.13L1644.63-22.13L1644.63-14.75L1637.25-14.75L1637.25-7.38ZM1666.75-7.38L1652.00-7.38L1652.00-59.00L1666.75-59.00L1666.75-36.88L1674.13-36.88L1674.13-44.25L1681.50-44.25L1681.50-51.63L1688.88-51.63L1688.88-59.00L1703.63-59.00L1703.63-51.63L1696.25-51.63L1696.25-44.25L1688.88-44.25L1688.88-36.88L1681.50-36.88L1681.50-29.50L1688.88-29.50L1688.88-22.13L1696.25-22.13L1696.25-14.75L1703.63-14.75L1703.63-7.38L1681.50-7.38L1681.50-14.75L1674.13-14.75L1674.13-22.13L1666.75-22.13L1666.75-7.38ZM1762.63-7.38L1711.00-7.38L1711.00-59.00L1762.63-59.00L1762.63-51.63L1725.75-51.63L1725.75-36.88L1755.25-36.88L1755.25-29.50L1725.75-29.50L1725.75-14.75L1762.63-14.75L1762.63-7.38ZM1784.75-7.38L1770.00-7.38L1770.00-59.00L1814.25-59.00L1814.25-51.63L1821.63-51.63L1821.63-29.50L1806.88-29.50L1806.88-22.13L1814.25-22.13L1814.25-14.75L1821.63-14.75L1821.63-7.38L1799.50-7.38L1799.50-14.75L1792.13-14.75L1792.13-22.13L1784.75-22.13L1784.75-7.38ZM1784.75-51.63L1784.75-29.50L1799.50-29.50L1799.50-36.88L1806.88-36.88L1806.88-51.63L1784.75-51.63Z" fill="url(#editing-gradow-gradient)"></path></g></g><style>text {
  font-size: 64px;
  font-family: Arial Black;
  dominant-baseline: central;
  text-anchor: middle;
}</style></svg>