<svg width="1276.21513671875px" height="124.422265625px" xmlns="http://www.w3.org/2000/svg" viewBox="-388.107568359375 12.788867187500003 1276.21513671875 124.422265625" style="background: rgba(40, 41, 47, 0);" preserveAspectRatio="xMidYMid"><defs><linearGradient id="editing-gradow-gradient" x1="0" x2="1" y1="0.5" y2="0.5" gradientUnits="objectBoundingBox"><stop offset="0" stop-color="#000000"></stop><stop offset="1" stop-color="#000000"></stop></linearGradient><filter id="editing-gradow-filter" x="-100%" y="-100%" width="300%" height="300%"><feFlood flood-color="rgba(97.6470588235294%,68.23529411764709%,36.07843137254901%,0)" result="flood"></feFlood><feComposite operator="in" in2="SourceAlpha" in="flood" result="shadow"></feComposite><feOffset dx="-4" dy="-4" in="SourceGraphic" result="offset-1"></feOffset><feOffset dx="4" dy="4" in="shadow" result="offset-2"></feOffset><feMerge><feMergeNode in="offset-2"></feMergeNode><feMergeNode in="offset-1"></feMergeNode></feMerge></filter></defs><g filter="url(#editing-gradow-filter)"><g transform="translate(-213.45999383926392, 98.26000022888184)"><path d="M26.18 0L11.71-22.08L8.64-17.22L8.64 0L5.06 0L5.06-44.86L8.64-44.86L8.64-23.49L22.98-44.86L27.14-44.86L14.02-25.47L30.46 0L26.18 0ZM59.58 0L54.14-15.87L54.14-15.87Q52.99-15.68 51.58-15.68L51.58-15.68L38.98-15.68L38.98 0L35.39 0L35.39-44.80L51.14-44.80L51.14-44.80Q57.22-44.80 60.19-41.09L60.19-41.09L60.19-41.09Q63.17-37.38 63.17-31.10L63.17-31.10L63.17-31.10Q63.17-26.30 62.11-22.59L62.11-22.59L62.11-22.59Q61.06-18.88 57.54-16.96L57.54-16.96L63.23 0L59.58 0ZM51.65-19.20L51.65-19.20Q55.23-19.20 56.99-21.12L56.99-21.12L56.99-21.12Q58.75-23.04 59.17-25.47L59.17-25.47L59.17-25.47Q59.58-27.90 59.58-30.91L59.58-30.91L59.58-30.91Q59.58-36.16 57.41-38.78L57.41-38.78L57.41-38.78Q55.23-41.41 51.39-41.41L51.39-41.41L38.98-41.41L38.98-19.20L51.65-19.20ZM75.01 0L75.01-41.54L70.72-41.66L70.72-44.80L78.59-44.80L78.59 0L75.01 0ZM119.10 0L119.10-34.24L107.46 0L103.55 0L91.97-34.24L91.97 0L88.38 0L88.38-44.80L91.97-44.80L105.47-5.50L119.10-44.80L122.69-44.80L122.69 0L119.10 0ZM129.79 0L129.79-3.20L156.03-41.54L130.62-41.54L130.62-44.80L160.58-44.80L160.58-41.60L134.34-3.26L160.96-3.26L160.96 0L129.79 0ZM171.52 0L171.52-41.54L167.23-41.66L167.23-44.80L175.10-44.80L175.10 0L171.52 0ZM206.08 0L191.62-22.08L188.54-17.22L188.54 0L184.96 0L184.96-44.86L188.54-44.86L188.54-23.49L202.88-44.86L207.04-44.86L193.92-25.47L210.37 0L206.08 0ZM236.61 0L236.61-41.54L232.32-41.66L232.32-44.80L240.19-44.80L240.19 0L236.61 0ZM251.01-11.39L251.01-11.39Q251.20-9.22 252.64-7.23L252.64-7.23L252.64-7.23Q254.08-5.25 256.61-4L256.61-4L256.61-4Q259.14-2.75 262.40-2.75L262.40-2.75L262.40-2.75Q267.33-2.75 270.62-4.96L270.62-4.96L270.62-4.96Q273.92-7.17 273.92-11.97L273.92-11.97L273.92-11.97Q273.92-14.78 272.32-16.67L272.32-16.67L272.32-16.67Q270.72-18.56 268.35-19.68L268.35-19.68L268.35-19.68Q265.98-20.80 261.89-22.27L261.89-22.27L261.89-22.27Q257.47-23.81 254.82-25.12L254.82-25.12L254.82-25.12Q252.16-26.43 250.34-28.67L250.34-28.67L250.34-28.67Q248.51-30.91 248.51-34.43L248.51-34.43L248.51-34.43Q248.51-37.25 250.11-39.78L250.11-39.78L250.11-39.78Q251.71-42.30 254.94-43.87L254.94-43.87L254.94-43.87Q258.18-45.44 262.91-45.44L262.91-45.44L262.91-45.44Q266.05-45.44 268.10-44.99L268.10-44.99L268.10-44.99Q270.14-44.54 272.26-43.52L272.26-43.52L271.17-40.13L271.17-40.13Q267.52-41.98 263.04-41.98L263.04-41.98L263.04-41.98Q258.11-41.98 255.17-39.94L255.17-39.94L255.17-39.94Q252.22-37.89 252.22-34.24L252.22-34.24L252.22-34.24Q252.22-31.94 253.70-30.37L253.70-30.37L253.70-30.37Q255.17-28.80 257.31-27.84L257.31-27.84L257.31-27.84Q259.46-26.88 263.30-25.54L263.30-25.54L263.30-25.54Q267.97-23.94 270.85-22.56L270.85-22.56L270.85-22.56Q273.73-21.18 275.74-18.66L275.74-18.66L275.74-18.66Q277.76-16.13 277.76-12.29L277.76-12.29L277.76-12.29Q277.76-6.40 274.02-2.85L274.02-2.85L274.02-2.85Q270.27 0.70 262.46 0.70L262.46 0.70L262.46 0.70Q257.73 0.70 254.37-1.06L254.37-1.06L254.37-1.06Q251.01-2.82 249.25-5.60L249.25-5.60L249.25-5.60Q247.49-8.38 247.36-11.39L247.36-11.39L251.01-11.39ZM327.94 0L322.82-15.68L308.22-15.68L303.23 0L299.46 0L313.79-44.80L317.18-44.80L331.78 0L327.94 0ZM315.46-39.23L309.25-19.20L321.86-19.20L315.46-39.23ZM356.22-11.39L356.22-11.39Q356.42-9.22 357.86-7.23L357.86-7.23L357.86-7.23Q359.30-5.25 361.82-4L361.82-4L361.82-4Q364.35-2.75 367.62-2.75L367.62-2.75L367.62-2.75Q372.54-2.75 375.84-4.96L375.84-4.96L375.84-4.96Q379.14-7.17 379.14-11.97L379.14-11.97L379.14-11.97Q379.14-14.78 377.54-16.67L377.54-16.67L377.54-16.67Q375.94-18.56 373.57-19.68L373.57-19.68L373.57-19.68Q371.20-20.80 367.10-22.27L367.10-22.27L367.10-22.27Q362.69-23.81 360.03-25.12L360.03-25.12L360.03-25.12Q357.38-26.43 355.55-28.67L355.55-28.67L355.55-28.67Q353.73-30.91 353.73-34.43L353.73-34.43L353.73-34.43Q353.73-37.25 355.33-39.78L355.33-39.78L355.33-39.78Q356.93-42.30 360.16-43.87L360.16-43.87L360.16-43.87Q363.39-45.44 368.13-45.44L368.13-45.44L368.13-45.44Q371.26-45.44 373.31-44.99L373.31-44.99L373.31-44.99Q375.36-44.54 377.47-43.52L377.47-43.52L376.38-40.13L376.38-40.13Q372.74-41.98 368.26-41.98L368.26-41.98L368.26-41.98Q363.33-41.98 360.38-39.94L360.38-39.94L360.38-39.94Q357.44-37.89 357.44-34.24L357.44-34.24L357.44-34.24Q357.44-31.94 358.91-30.37L358.91-30.37L358.91-30.37Q360.38-28.80 362.53-27.84L362.53-27.84L362.53-27.84Q364.67-26.88 368.51-25.54L368.51-25.54L368.51-25.54Q373.18-23.94 376.06-22.56L376.06-22.56L376.06-22.56Q378.94-21.18 380.96-18.66L380.96-18.66L380.96-18.66Q382.98-16.13 382.98-12.29L382.98-12.29L382.98-12.29Q382.98-6.40 379.23-2.85L379.23-2.85L379.23-2.85Q375.49 0.70 367.68 0.70L367.68 0.70L367.68 0.70Q362.94 0.70 359.58-1.06L359.58-1.06L359.58-1.06Q356.22-2.82 354.46-5.60L354.46-5.60L354.46-5.60Q352.70-8.38 352.58-11.39L352.58-11.39L356.22-11.39ZM391.10 0L391.10-44.80L412.48-44.80L412.48-41.47L394.69-41.47L394.69-26.43L406.91-26.43L405.70-22.91L394.69-22.91L394.69-3.20L412.35-3.20L412.35 0L391.10 0ZM448.90 0L437.12-18.82L425.28 0L420.86 0L435.01-22.53L422.08-44.80L426.11-44.80L437.12-25.98L448.26-44.80L452.29-44.80L439.30-22.53L453.31 0L448.90 0ZM480.77-1.92L480.77-1.92Q482.43-2.56 483.55-4.26L483.55-4.26L483.55-4.26Q484.67-5.95 484.67-9.73L484.67-9.73L484.67-18.82L484.67-18.82Q482.94-17.28 480.06-16.48L480.06-16.48L480.06-16.48Q477.18-15.68 474.56-15.68L474.56-15.68L474.56-15.68Q467.78-15.68 463.84-19.04L463.84-19.04L463.84-19.04Q459.90-22.40 459.90-28.99L459.90-28.99L459.90-44.80L463.49-44.80L463.49-28.35L463.49-28.35Q463.49-23.87 466.56-21.54L466.56-21.54L466.56-21.54Q469.63-19.20 474.56-19.20L474.56-19.20L474.56-19.20Q478.34-19.20 481.15-20.80L481.15-20.80L481.15-20.80Q483.97-22.40 484.67-25.60L484.67-25.60L484.67-44.80L488.32-44.80L488.32-9.98L488.32-9.98Q488.32-5.31 486.56-2.66L486.56-2.66L486.56-2.66Q484.80 0 481.60 0.45L481.60 0.45L480.77-1.92ZM545.41 0L545.41-34.24L533.76 0L529.86 0L518.27-34.24L518.27 0L514.69 0L514.69-44.80L518.27-44.80L531.78-5.50L545.41-44.80L548.99-44.80L548.99 0L545.41 0ZM585.02-11.84L585.02-11.84Q585.02-5.38 581.09-2.34L581.09-2.34L581.09-2.34Q577.15 0.70 571.65 0.70L571.65 0.70L571.65 0.70Q568.19 0.70 565.12-0.54L565.12-0.54L565.12-0.54Q562.05-1.79 560.10-4.61L560.10-4.61L560.10-4.61Q558.14-7.42 558.14-11.84L558.14-11.84L558.14-32.45L558.14-32.45Q558.14-39.04 561.76-42.43L561.76-42.43L561.76-42.43Q565.38-45.82 571.71-45.82L571.71-45.82L571.71-45.82Q578.05-45.82 581.54-42.24L581.54-42.24L581.54-42.24Q585.02-38.66 585.02-32.38L585.02-32.38L585.02-11.84ZM581.50-33.02L581.50-33.02Q581.50-37.70 578.78-40.06L578.78-40.06L578.78-40.06Q576.06-42.43 571.58-42.43L571.58-42.43L571.58-42.43Q567.10-42.43 564.42-40.06L564.42-40.06L564.42-40.06Q561.73-37.70 561.73-33.02L561.73-33.02L561.73-11.90L561.73-11.90Q561.73-7.36 564.51-5.02L564.51-5.02L564.51-5.02Q567.30-2.69 571.58-2.69L571.58-2.69L571.58-2.69Q575.94-2.69 578.72-4.96L578.72-4.96L578.72-4.96Q581.50-7.23 581.50-11.97L581.50-11.97L581.50-33.02ZM600.13 0L600.13-41.60L589.25-41.60L589.25-44.80L614.98-44.80L614.98-41.60L603.71-41.60L603.71 0L600.13 0ZM643.90 0L643.90-22.91L623.55-22.91L623.55 0L619.97 0L619.97-44.80L623.55-44.80L623.55-26.43L643.90-26.43L643.90-44.80L647.49-44.80L647.49 0L643.90 0ZM657.60 0L657.60-44.80L678.98-44.80L678.98-41.47L661.18-41.47L661.18-26.43L673.41-26.43L672.19-22.91L661.18-22.91L661.18-3.20L678.85-3.20L678.85 0L657.60 0ZM711.55 0L706.11-15.87L706.11-15.87Q704.96-15.68 703.55-15.68L703.55-15.68L690.94-15.68L690.94 0L687.36 0L687.36-44.80L703.10-44.80L703.10-44.80Q709.18-44.80 712.16-41.09L712.16-41.09L712.16-41.09Q715.14-37.38 715.14-31.10L715.14-31.10L715.14-31.10Q715.14-26.30 714.08-22.59L714.08-22.59L714.08-22.59Q713.02-18.88 709.50-16.96L709.50-16.96L715.20 0L711.55 0ZM703.62-19.20L703.62-19.20Q707.20-19.20 708.96-21.12L708.96-21.12L708.96-21.12Q710.72-23.04 711.14-25.47L711.14-25.47L711.14-25.47Q711.55-27.90 711.55-30.91L711.55-30.91L711.55-30.91Q711.55-36.16 709.38-38.78L709.38-38.78L709.38-38.78Q707.20-41.41 703.36-41.41L703.36-41.41L690.94-41.41L690.94-19.20L703.62-19.20ZM741.25 0L741.25-44.80L762.62-44.80L762.62-41.41L744.83-41.41L744.83-26.43L755.78-26.43L754.30-22.91L744.83-22.91L744.83 0L741.25 0ZM792.83-44.86L796.42-44.86L796.42-11.90L796.42-11.90Q796.42-5.44 792.48-2.50L792.48-2.50L792.48-2.50Q788.54 0.45 782.98 0.45L782.98 0.45L782.98 0.45Q777.41 0.45 773.44-2.50L773.44-2.50L773.44-2.50Q769.47-5.44 769.47-11.90L769.47-11.90L769.47-44.86L773.06-44.86L773.06-11.39L773.06-11.39Q773.06-7.49 775.90-5.12L775.90-5.12L775.90-5.12Q778.75-2.75 782.91-2.75L782.91-2.75L782.91-2.75Q787.07-2.75 789.95-5.12L789.95-5.12L789.95-5.12Q792.83-7.49 792.83-11.39L792.83-11.39L792.83-44.86ZM828.29-1.47L828.29-1.47Q822.59 0.64 817.66 0.64L817.66 0.64L817.66 0.64Q812.10 0.64 808.64-2.30L808.64-2.30L808.64-2.30Q805.18-5.25 805.18-11.71L805.18-11.71L805.18-32.26L805.18-32.26Q805.18-37.12 806.56-39.62L806.56-39.62L806.56-39.62Q807.94-42.11 810.75-43.84L810.75-43.84L810.75-43.84Q813.57-45.44 817.66-45.44L817.66-45.44L817.66-45.44Q822.66-45.44 826.69-43.33L826.69-43.33L825.66-40.90L825.66-40.90Q822.02-42.24 818.75-42.24L818.75-42.24L818.75-42.24Q814.85-42.24 811.81-40.32L811.81-40.32L811.81-40.32Q808.77-38.40 808.77-32.83L808.77-32.83L808.77-11.84L808.77-11.84Q808.77-7.42 811.07-5.02L811.07-5.02L811.07-5.02Q813.38-2.62 817.98-2.62L817.98-2.62L817.98-2.62Q822.02-2.62 827.52-4.48L827.52-4.48L828.29-1.47ZM855.04 0L840.58-22.08L837.50-17.22L837.50 0L833.92 0L833.92-44.86L837.50-44.86L837.50-23.49L851.84-44.86L856.00-44.86L842.88-25.47L859.33 0L855.04 0ZM864.26 0L864.26-44.80L885.63-44.80L885.63-41.47L867.84-41.47L867.84-26.43L880.06-26.43L878.85-22.91L867.84-22.91L867.84-3.20L885.50-3.20L885.50 0L864.26 0ZM918.21 0L912.77-15.87L912.77-15.87Q911.62-15.68 910.21-15.68L910.21-15.68L897.60-15.68L897.60 0L894.02 0L894.02-44.80L909.76-44.80L909.76-44.80Q915.84-44.80 918.82-41.09L918.82-41.09L918.82-41.09Q921.79-37.38 921.79-31.10L921.79-31.10L921.79-31.10Q921.79-26.30 920.74-22.59L920.74-22.59L920.74-22.59Q919.68-18.88 916.16-16.96L916.16-16.96L921.86 0L918.21 0ZM910.27-19.20L910.27-19.20Q913.86-19.20 915.62-21.12L915.62-21.12L915.62-21.12Q917.38-23.04 917.79-25.47L917.79-25.47L917.79-25.47Q918.21-27.90 918.21-30.91L918.21-30.91L918.21-30.91Q918.21-36.16 916.03-38.78L916.03-38.78L916.03-38.78Q913.86-41.41 910.02-41.41L910.02-41.41L897.60-41.41L897.60-19.20L910.27-19.20Z" fill="url(#editing-gradow-gradient)"></path></g></g><style>text {
  font-size: 64px;
  font-family: Arial Black;
  dominant-baseline: central;
  text-anchor: middle;
}</style></svg>