<svg width="365.39755859375px" height="122.021240234375px" xmlns="http://www.w3.org/2000/svg" viewBox="67.30122070312501 13.9893798828125 365.39755859375 122.021240234375" style="background: rgba(0, 0, 0, 0);" preserveAspectRatio="xMidYMid"><defs><linearGradient id="editing-gradient-gradient" x1="0" x2="1" y1="0.5" y2="0.5" gradientUnits="objectBoundingBox"><stop offset="0" stop-color="#f0f"></stop><stop offset="1" stop-color="#0ff"></stop></linearGradient></defs><g><g transform="translate(123.6949942111969, 98.9921875)"><path d="M14.14 0L0.51 0L7.81-38.91L8.51-42.24L22.21-42.24L14.14 0ZM40.13-3.78L40.13-3.78L40.13-3.78Q38.40 1.28 31.74 1.28L31.74 1.28L31.74 1.28Q26.82 1.28 23.42-4.61L23.42-4.61L23.42-4.61Q19.97-10.50 19.33-20.10L19.33-20.10L19.33-20.10Q26.37-32.96 31.23-38.27L31.23-38.27L31.23-38.27Q35.90-43.33 40.77-43.33L40.77-43.33L40.77-43.33Q43.39-43.33 45.28-41.92L45.28-41.92L45.28-41.92Q47.17-40.51 47.62-38.27L47.62-38.27L47.62-38.27Q45.44-37.38 44.42-36.67L44.42-36.67L44.42-36.67Q41.86-34.75 38.40-30.46L38.40-30.46L32.58-23.49L32.58-23.49Q31.17-21.82 30.59-21.06L30.59-21.06L30.59-21.06Q31.55-15.68 34.43-10.37L34.43-10.37L34.43-10.37Q37.18-5.31 40.13-3.78ZM65.60-17.98L65.60-17.98L65.60-17.98Q67.90-22.08 67.90-26.24L67.90-26.24L67.90-26.24Q67.90-28.99 65.92-28.99L65.92-28.99L65.92-28.99Q64.38-28.99 62.78-26.37L62.78-26.37L62.78-26.37Q61.12-23.74 60.61-20.35L60.61-20.35L57.28 0L44.03 1.28L50.56-32.64L61.12-33.92L59.97-27.46L59.97-27.46Q63.10-33.92 70.14-33.92L70.14-33.92L70.14-33.92Q73.86-33.92 75.87-32L75.87-32L75.87-32Q77.89-30.08 77.89-26.14L77.89-26.14L77.89-26.14Q77.89-22.21 75.30-19.71L75.30-19.71L75.30-19.71Q72.70-17.22 68.29-17.22L68.29-17.22L68.29-17.22Q66.37-17.22 65.60-17.98ZM94.27-3.52L94.27-3.52L94.27-3.52Q92.29 1.28 85.95 1.28L85.95 1.28L85.95 1.28Q82.69 1.28 80.64-0.96L80.64-0.96L80.64-0.96Q78.91-2.94 78.91-4.93L78.91-4.93L78.91-4.93Q78.91-10.11 81.28-20.22L81.28-20.22L83.65-32.64L96.64-33.92L92.74-13.70L92.74-13.70Q91.65-8.96 91.65-7.30L91.65-7.30L91.65-7.30Q91.65-3.65 94.27-3.52ZM84.80-41.54L84.80-41.54L84.80-41.54Q84.80-44.03 86.88-45.38L86.88-45.38L86.88-45.38Q88.96-46.72 91.97-46.72L91.97-46.72L91.97-46.72Q94.98-46.72 96.80-45.38L96.80-45.38L96.80-45.38Q98.62-44.03 98.62-41.54L98.62-41.54L98.62-41.54Q98.62-39.04 96.61-37.76L96.61-37.76L96.61-37.76Q94.59-36.48 91.58-36.48L91.58-36.48L91.58-36.48Q88.58-36.48 86.69-37.76L86.69-37.76L86.69-37.76Q84.80-39.04 84.80-41.54ZM145.79 1.28L145.79 1.28L145.79 1.28Q138.05 1.28 138.05-4.74L138.05-4.74L138.05-4.74Q138.05-7.36 139.17-12.45L139.17-12.45L139.17-12.45Q140.29-17.54 140.67-19.58L140.67-19.58L140.67-19.58Q141.57-24.26 141.57-25.73L141.57-25.73L141.57-25.73Q141.57-28.99 139.14-28.99L139.14-28.99L139.14-28.99Q137.54-28.99 136-26.78L136-26.78L136-26.78Q134.46-24.58 133.76-20.16L133.76-20.16L129.79 0L117.31 1.28L120.77-16.13L120.77-16.13Q121.34-19.01 121.86-22.27L121.86-22.27L121.86-22.27Q122.37-25.54 122.37-26.05L122.37-26.05L122.37-26.05Q122.37-28.99 120.19-28.99L120.19-28.99L120.19-28.99Q118.72-28.99 117.12-26.82L117.12-26.82L117.12-26.82Q115.52-24.64 114.62-20.16L114.62-20.16L110.72 0L98.11 1.28L104.83-32.64L115.26-33.92L114.18-27.46L114.18-27.46Q115.84-30.91 118.91-32.42L118.91-32.42L118.91-32.42Q121.98-33.92 126.78-33.92L126.78-33.92L126.78-33.92Q129.54-33.92 131.33-32.58L131.33-32.58L131.33-32.58Q133.12-31.23 133.70-29.06L133.70-29.06L133.70-29.06Q134.78-31.30 137.57-32.61L137.57-32.61L137.57-32.61Q140.35-33.92 143.78-33.92L143.78-33.92L143.78-33.92Q147.20-33.92 148.90-33.18L148.90-33.18L148.90-33.18Q150.59-32.45 151.62-31.23L151.62-31.23L151.62-31.23Q153.34-28.99 153.34-24.90L153.34-24.90L153.34-24.90Q153.34-20.86 151.62-12.48L151.62-12.48L151.62-12.48Q150.72-8.38 150.72-6.88L150.72-6.88L150.72-6.88Q150.72-5.38 151.58-4.48L151.58-4.48L151.58-4.48Q152.45-3.58 153.73-3.46L153.73-3.46L153.73-3.46Q153.09-1.28 150.88 0L150.88 0L150.88 0Q148.67 1.28 145.79 1.28ZM172.19 0.16L172.19 0.16L172.19 0.16Q168.77-0.45 166.98-0.70L166.98-0.70L166.98-0.70Q165.18-0.96 163.30-0.96L163.30-0.96L163.30-0.96Q161.41-0.96 160.45 0L160.45 0L160.45 0Q158.98-1.09 158.21-4.54L158.21-4.54L158.21-4.54Q157.95-5.50 157.95-7.10L157.95-7.10L157.95-7.10Q157.95-10.56 161.92-13.95L161.92-13.95L181.89-30.34L181.89-30.34Q173.63-31.68 170.30-31.68L170.30-31.68L170.30-31.68Q166.98-31.68 163.90-30.21L163.90-30.21L163.90-30.21Q162.18-33.02 162.18-36.29L162.18-36.29L162.18-36.29Q162.18-39.55 164.58-41.22L164.58-41.22L164.58-41.22Q166.98-42.88 171.01-42.88L171.01-42.88L171.01-42.88Q172.80-42.88 174.72-42.62L174.72-42.62L174.72-42.62Q176.64-42.37 178.56-42.11L178.56-42.11L182.34-41.54L182.34-41.54Q184.19-41.28 186.59-41.28L186.59-41.28L186.59-41.28Q188.99-41.28 191.68-41.92L191.68-41.92L191.68-41.92Q194.24-39.68 194.24-35.97L194.24-35.97L194.24-35.97Q194.24-31.49 191.17-29.06L191.17-29.06L169.41-11.65L169.41-11.65Q174.08-10.37 181.82-10.37L181.82-10.37L181.82-10.37Q185.66-10.37 188.10-12.29L188.10-12.29L188.10-12.29Q189.18-10.88 189.47-9.70L189.47-9.70L189.47-9.70Q189.76-8.51 189.76-6.82L189.76-6.82L189.76-6.82Q189.76-5.12 189.18-3.74L189.18-3.74L189.18-3.74Q188.61-2.37 187.39-1.34L187.39-1.34L187.39-1.34Q184.96 0.77 179.58 0.77L179.58 0.77L179.58 0.77Q175.62 0.77 172.19 0.16ZM210.94-3.52L210.94-3.52L210.94-3.52Q208.96 1.28 202.62 1.28L202.62 1.28L202.62 1.28Q199.36 1.28 197.31-0.96L197.31-0.96L197.31-0.96Q195.58-2.94 195.58-4.93L195.58-4.93L195.58-4.93Q195.58-10.11 197.95-20.22L197.95-20.22L200.32-32.64L213.31-33.92L209.41-13.70L209.41-13.70Q208.32-8.96 208.32-7.30L208.32-7.30L208.32-7.30Q208.32-3.65 210.94-3.52ZM201.47-41.54L201.47-41.54L201.47-41.54Q201.47-44.03 203.55-45.38L203.55-45.38L203.55-45.38Q205.63-46.72 208.64-46.72L208.64-46.72L208.64-46.72Q211.65-46.72 213.47-45.38L213.47-45.38L213.47-45.38Q215.30-44.03 215.30-41.54L215.30-41.54L215.30-41.54Q215.30-39.04 213.28-37.76L213.28-37.76L213.28-37.76Q211.26-36.48 208.26-36.48L208.26-36.48L208.26-36.48Q205.25-36.48 203.36-37.76L203.36-37.76L203.36-37.76Q201.47-39.04 201.47-41.54ZM232.90-30.34L232.90-30.34L232.90-30.34Q236.35-33.92 243.65-33.92L243.65-33.92L243.65-33.92Q247.68-33.92 249.89-31.78L249.89-31.78L249.89-31.78Q252.10-29.63 252.10-25.70L252.10-25.70L252.10-25.70Q252.10-21.76 249.89-18.98L249.89-18.98L249.89-18.98Q247.68-16.19 243.58-15.04L243.58-15.04L243.58-15.04Q243.90-13.76 244.35-12.42L244.35-12.42L245.25-9.86L245.25-9.86Q246.46-6.59 247.42-5.44L247.42-5.44L247.42-5.44Q248.38-4.29 249.66-3.90L249.66-3.90L249.66-3.90Q248.96-1.28 246.40 0.13L246.40 0.13L246.40 0.13Q244.35 1.28 241.54 1.28L241.54 1.28L241.54 1.28Q233.28 1.28 232.19-11.46L232.19-11.46L232.19-11.46Q232.00-13.25 232.00-15.04L232.00-15.04L232.00-15.04Q235.20-15.94 237.44-18.94L237.44-18.94L237.44-18.94Q239.68-21.95 239.68-25.47L239.68-25.47L239.68-25.47Q239.68-28.99 237.18-28.99L237.18-28.99L237.18-28.99Q235.39-28.99 233.98-27.01L233.98-27.01L233.98-27.01Q232.58-25.02 231.94-21.63L231.94-21.63L227.71 0L214.78 1.28L223.74-44.80L236.61-46.08L235.14-38.46L235.14-38.46Q234.18-33.09 232.90-30.34Z" fill="url(#editing-gradient-gradient)"></path></g></g><style>text {
  font-size: 64px;
  font-family: Arial Black;
  dominant-baseline: central;
  text-anchor: middle;
}</style></svg>